# xmcd CD database file
#
# Track frame offsets:
#	150
#	18760
#	37126
#	47716
#	58173
#	67805
#	77093
#	92356
#	108003
#	124845
#	140434
#	155389
#	172783
#	186811
#
# Disc length: 2753 seconds
#
# Revision: 0
# Processed by: cddbd v1.5.2PL0 Copyright (c) Steve Scherf et al.
# Submitted via: CDex 1.51
#
DISCID=a80abf0e
DTITLE=Gabriel Francisco - Spanish Dreams
DYEAR=2003
DGENRE=New Age
TTITLE0=Festival
TTITLE1=Malaguena
TTITLE2=Flamenco Jam
TTITLE3=Mi Juchiteca
TTITLE4=Contigo En La Distancia
TTITLE5=Mucho Corazon
TTITLE6=Amor Eterno
TTITLE7=Granada
TTITLE8=Spanish Dream
TTITLE9=Recuerdos De Alhambra
TTITLE10=La Catedral
TTITLE11=Hey
TTITLE12=Una Limonsa Por El Amor De Dios
TTITLE13=El Cascabal
EXTD=YEAR: 2003
EXTT0=
EXTT1=
EXTT2=
EXTT3=
EXTT4=
EXTT5=
EXTT6=
EXTT7=
EXTT8=
EXTT9=
EXTT10=
EXTT11=
EXTT12=
EXTT13=
PLAYORDER=
